<svg width="159" height="211" viewBox="0 0 159 211" fill="none" xmlns="http://www.w3.org/2000/svg">
<rect x="0.5" y="1.5" width="158" height="209" rx="16.5" fill="#D1DAB9" stroke="black"/>
<path d="M24 190C24 191.105 24.8954 192 26 192C27.1046 192 28 191.105 28 190H24ZM24.0247 0.686374C16.1206 50.4676 16.123 97.7513 18.0969 132.635C19.0842 150.081 20.5651 164.437 21.8002 174.465C22.4177 179.479 22.9738 183.411 23.3759 186.108C23.577 187.456 23.7394 188.494 23.8516 189.203C23.9086 189.563 23.9501 189.822 23.9797 190.01C23.9944 190.102 24.0043 190.167 24.0105 190.208C24.0137 190.229 24.0145 190.236 24.0141 190.233C24.0141 190.232 24.0123 190.219 24.0103 190.2C24.0093 190.19 24.0067 190.162 24.0054 190.146C24.0037 190.121 24.0006 190.047 24 190H28C28 189.881 27.9884 189.782 27.9883 189.781C27.9853 189.752 27.9821 189.728 27.9801 189.713C27.976 189.681 27.9711 189.647 27.9668 189.619C27.9579 189.559 27.9456 189.479 27.9309 189.386C27.9019 189.203 27.8569 188.921 27.8024 188.577C27.6915 187.877 27.531 186.851 27.3321 185.518C26.9344 182.851 26.3831 178.952 25.7702 173.976C24.5442 164.021 23.0721 149.755 22.0906 132.409C20.127 97.7096 20.1294 50.728 27.9753 1.31363L24.0247 0.686374Z" fill="black" fill-opacity="0.2"/>
<path d="M78 190C78 191.105 78.8954 192 80 192C81.1046 192 82 191.105 82 190H78ZM78 1C78 98.5 78 189.53 78 190H82C82 189.53 82 98.5 82 1L78 1Z" fill="black" fill-opacity="0.2"/>
<path d="M79.6105 129.629C79.5163 129.576 79.4123 129.53 79.2987 129.493C78.6483 129.277 77.5959 129.289 75.8176 129.735C72.24 130.632 65.2301 133.419 51.3863 140.909C24.6881 135.163 8.06644 121.333 0.848229 106.181C9.57788 91.6235 27.9349 78.2908 51.4512 72.1378C65.3054 77.6439 72.2944 79.8171 75.8366 80.6076C77.6024 81.0017 78.5836 81.0697 79.1565 80.9974C79.2767 80.9822 79.3937 80.9591 79.5044 80.9249C79.6186 80.9595 79.7398 80.9826 79.8651 80.9978C80.4506 81.0689 81.4635 81.0028 83.3005 80.609C86.9843 79.8191 94.2597 77.646 108.69 72.1361C130.848 77.8914 147.838 90.1991 158.114 106.147C148.135 122.245 133.468 135.195 108.738 140.764C94.3165 133.741 87.0334 131 83.3345 130.025C81.4942 129.539 80.4472 129.464 79.8197 129.579C79.7477 129.592 79.6779 129.609 79.6105 129.629Z" stroke="black" stroke-width="1.5"/>
<rect x="109" y="115.45" width="34" height="36.75" fill="#D1DAB9"/>
<path d="M136 190C136 191.105 135.105 192 134 192C132.895 192 132 191.105 132 190H136ZM135.975 0.686374C143.879 50.4676 143.877 97.7513 141.903 132.635C140.916 150.081 139.435 164.437 138.2 174.465C137.582 179.479 137.026 183.411 136.624 186.108C136.423 187.456 136.261 188.494 136.148 189.203C136.091 189.563 136.05 189.822 136.02 190.01C136.006 190.102 135.996 190.167 135.99 190.208C135.986 190.229 135.985 190.236 135.986 190.233C135.986 190.232 135.988 190.219 135.99 190.2C135.991 190.19 135.993 190.162 135.995 190.146C135.996 190.121 135.999 190.047 136 190H132C132 189.881 132.012 189.782 132.012 189.781C132.015 189.752 132.018 189.728 132.02 189.713C132.024 189.681 132.029 189.647 132.033 189.619C132.042 189.559 132.054 189.479 132.069 189.386C132.098 189.203 132.143 188.921 132.198 188.577C132.309 187.877 132.469 186.851 132.668 185.518C133.066 182.851 133.617 178.952 134.23 173.976C135.456 164.021 136.928 149.755 137.909 132.409C139.873 97.7096 139.871 50.728 132.025 1.31363L135.975 0.686374Z" fill="black" fill-opacity="0.2"/>
<line x1="51.25" y1="72.4001" x2="51.25" y2="1.00008" stroke="black" stroke-width="1.5"/>
<line x1="108.25" y1="72.4001" x2="108.25" y2="1.00008" stroke="black" stroke-width="1.5"/>
<line x1="51.25" y1="211" x2="51.25" y2="140.65" stroke="black" stroke-width="1.5"/>
<line x1="108.25" y1="211" x2="108.25" y2="140.65" stroke="black" stroke-width="1.5"/>
<path d="M51.5 68.2001L53.6651 72.1376H49.3349L51.5 68.2001Z" fill="black"/>
<path d="M108.5 68.2001L110.665 72.1376H106.335L108.5 68.2001Z" fill="black"/>
<path d="M110.579 139.769L108.426 143.714L106.249 139.783L110.579 139.769Z" fill="black"/>
<path d="M53.4935 140.665L51.414 144.743L49.0894 140.545L53.4935 140.665Z" fill="black"/>
<ellipse cx="151.5" cy="106.525" rx="2.5" ry="2.625" fill="black"/>
</svg>
