<svg width="243" height="137" viewBox="0 0 243 137" fill="none" xmlns="http://www.w3.org/2000/svg">
<path d="M35.8009 19.1204L32.6774 22.9631L31.476 25.5248L30.7552 27.2327L30.5149 29.3675L30.2746 31.2888L30.0343 32.7831V48.1537V79.3218V136.534H0V51.3559V43.6706L1.44165 36.1988L5.28604 29.3675L13.2151 24.0305L23.7872 20.6148L35.8009 19.1204Z" fill="white"/>
<path d="M35.8009 19.2358L41.3574 16.065L47.924 13.3171L54.9958 12.8943H62.0676L68.8868 13.3171L75.706 14.374L79.7471 16.1004L82.2727 17.5447L84.5458 19.6585L85.8086 21.9837V23.6748V29.1707V36.1463V41.6423V46.0813V52V60.878V78V106.748V135.496H115.359V54.9593V45.2358V37.2032V25.4735L113.338 18.1789L106.771 11.8374L95.1622 4.6504L79.2419 0L63.8355 1.26829L54.7432 3.17073L45.3984 7.39837L40.5997 10.9919L39.3368 12.4715L38.3266 13.9512L37.3163 15.4309L36.5586 16.9106L36.0535 18.1789L35.8009 19.2358Z" fill="white"/>
<path d="M207.162 117.13L210.289 113.296L211.491 110.741L212.213 109.037L212.453 106.907L212.694 104.991L212.934 103.5V88.1666V57.074V2.23517e-05H243V84.9721V92.6388L241.557 100.092L237.708 106.907L229.771 112.231L219.188 115.639L207.162 117.13Z" fill="white"/>
<path d="M207.162 117.125L201.606 120.296L195.041 123.044L187.971 123.466H180.9L174.082 123.044L167.264 121.987L163.224 120.261L160.699 118.816L158.426 116.703L157.163 114.378V112.687V107.191V100.216V94.7206V90.282V84.3637V75.4863V58.3657V29.6199V0.874127H127.619V81.4046V91.1274V99.1593V110.888L129.639 118.182L136.204 124.523L147.811 131.71L163.729 136.36L179.132 135.092L188.223 133.189L197.566 128.962L202.364 125.369L203.627 123.889L204.637 122.41L205.647 120.93L206.404 119.45L206.909 118.182L207.162 117.125Z" fill="white"/>
</svg>
